{
	"patcher" : 	{
		"fileversion" : 1,
		"rect" : [ 25.0, 69.0, 672.0, 457.0 ],
		"bglocked" : 0,
		"defrect" : [ 25.0, 69.0, 672.0, 457.0 ],
		"openrect" : [ 0.0, 0.0, 0.0, 0.0 ],
		"openinpresentation" : 0,
		"default_fontsize" : 12.0,
		"default_fontface" : 0,
		"default_fontname" : "Arial",
		"gridonopen" : 0,
		"gridsize" : [ 15.0, 15.0 ],
		"gridsnaponopen" : 0,
		"toolbarvisible" : 1,
		"boxanimatetime" : 200,
		"imprint" : 0,
		"enablehscroll" : 1,
		"enablevscroll" : 1,
		"devicewidth" : 0.0,
		"boxes" : [ 			{
				"box" : 				{
					"fontname" : "Arial",
					"fontsize" : 9.0,
					"id" : "obj-9",
					"maxclass" : "comment",
					"numinlets" : 1,
					"numoutlets" : 0,
					"patching_rect" : [ 117.0, 137.0, 45.0, 17.0 ],
					"text" : "button"
				}

			}
, 			{
				"box" : 				{
					"fontname" : "Arial",
					"fontsize" : 9.0,
					"id" : "obj-6",
					"maxclass" : "comment",
					"numinlets" : 1,
					"numoutlets" : 0,
					"patching_rect" : [ 35.0, 137.0, 45.0, 17.0 ],
					"text" : "position"
				}

			}
, 			{
				"box" : 				{
					"autofit" : 1,
					"data" : [ 3623, "", "IBkSG0fBZn....PCIgDQRA...zL...PPHX....fbNChx....DLmPIQEBHf.B7g.YHB..M3cRDEDU3wY6c86Sar7DeRTJ3OATpP2q4Rp9ZNprDJfoJcoJJmEcogmPHgDmCkHJI3HEonnWZR2S9h9VktTgwHK4JLjJ70voTEweBzcuBybL25cuc16N+Kx8QxJA681clYmY1Ym8G2ihhhhfRThRvFOdZS.knDyanznoDkvPTZzThRXHJMZJQILDOIqOXXP.7qKuD9wEW.md5oRKy62aOXoJU.Ka6LSfknDyZ3Qll8r199vOt3BnYylrelSZ0Bp45ZLwUhRLKBiLZZznwHFKNNNP+9809rkFNk3gBXazrxJqLhwgiiCb94mK82DAV1RLc.FNcdQQ43qsuetqiolS3HFvwwIB.XjOmzpUTTTTzIsZI82oebbb3zTkXLAOOOs8Qb9344UHziJcJS9b8fAEBsXJzl8rFMZnbTDzRulqK333nqpJwTDub4kAGGmb2OoJoOlfvf.VgzqBEAejKjlEUZifHNxgtQaJJOTkH+3jVsxkm975gmSjIxz2NoUqo1nKTjpQSZBVYFApBAvwwYlfYKQRj0P1xqCvrztyR5OJMZtdvfLI3PuX3GOOuYJFtDIA0wH1ewwqeVgndEmQ7l0lOrxE27e95WU8SohZttv4koVdtAqu95IlewKWdYP2Jv0ueensuelxdEMCddddw027DTlHfhXBekX1Gub4kS72KUoBqIY+iKtHSs269vGT11yKPoQy7l0eIJFXYaCqu95ZKWylMgvf.ipawrlMutX2RMZLUXThGF.Un+629VVk2zEKkFxOFZ17HjZzTDqbbIl+.FVlksMqPzngZwAzsfEWCyYQ7j7LpRZOqI6r4vffXuPplK05quN7xkWtP10zhzsLmDbBcPF+KVWlDBhN5RFuKJ6vPq9629VikSzPmd+d6AaTut1xGFDvpcnaaFGGmI9NeG2nwlne0nQiXY5wGe78EtH1NChe3jhvqGLHxyyKSKxFlZTNPLE33yaJ8mk5ARY8EPdmVe59P4YT9kV4ws4jN4C8Yn0uozTZfxiT5ZblhaNxnzzuT09Y97zjGHa2RSgmmG7xkWNNCMhkse+9P+98gSO8T386sWpdy+wEWLRRMxZRNJp5AfgiJj0mOLH.d8lap842ndc3ZCFYlFRlksM344o8HfvIKqhI.XoJUXQO4As88g28gOHUF433LRxNn8Gn9kRP81YpmOUOqJOCWOXPp0spcNftmKMucn2FS73Hi9udvfnSZ0x3QGUMRSVpKbajvs7p3EQ5fV9z9sznqz.U1K1WMNFoIM5NsEaOsczBER2Q.bDVltUJxpACWZhifk6dthScw0HjytgfacIR6bcvoSljVe.m5WmtfpPy3x6lXzjlSENamKY5oSMiFcBeNweqS.yglJxiwPdlSSVpKJeh0adogzFoIJhuAMm5WlbsnMZz4XlCjsUenXhbwZj1wK.Am3b0sBxMa1T6gaZRDOcV.mETDfgy263iOFrrsy8VrWDxRyL2TCqRtSSKMWdLqnnjGV11vIsZot.57Nn5C2QZ3DCtIdRxacUjzSQNRSVj4EAunajFt7op4ApSVTjizvQFxIhFYzFk1G6izvYieZhGHcK5FtYB+S.bVDRSksxV6IN0AtlMTHtC.lEtUh1ndcnsuOqc8hpQYGqFMgAArRIYQuw8Lckpmmw62aOk+liiSxEkSC52uuTEatgnI5fj12OKs4L2ndc30atIznQiTcvhgocRqVIjKi8QZJ5M9IWud+ofZttv0CF.dddwi5333.dddFeQlnZTKtaqFpQRae+39AGGmIxlyzj4q1ueenYylvF0qCqrxJvJqrhzQfp45NBsOVWbyo4dXi6163g.rrsMZDEUHMmMltsZnGcfwcB.PfF2l5zDKOxe3hqqxPerNRC2ybw3HiVka5Tygp4z..+9n+4qeEBCBlZaNyzBWkKvQfZzngT4wb2c47rTrwOzfp4z.v8aqFc3zSOMwbalzaNyZttE1wNnYylve8rmMhgybmQSVOwfkPOzMuENNrv4JfnH77aJN93iKzq3IQCm4NilxQZFeP2bAxx8a2z5zYd94mm9BTZHnidN2YzLMmmzCcj1bZPXxj5m1mNSYYVLqfd7tGqFMbGUnbR6yFHs4zfvjI0OoOcls88GYcWvLKd94mmaCHTOcrZzLsFZdZbx.en.cizvcMalz8AgAAvF0qCaTutRdPz.5jVsxjAzXO7LNCQaxj64rCCRaxmkFS4Gblb+jNA.z90Wu4lrJeMW2349Xx0V0X2ngSHZlbGqw4U5QdmOyeR6n.QGVbBUli7cZd8LY59OrlqK7++2+Ua4Pc4wtQSQl2bNBh2u2dZGMgiWEcsUQus7mVPzgEmQ80Eh1zJA.TZ5ce3CFcUjwYcnPmESjrmoaBgb8LnqCk6dbhSFfRaSe112G9qm8Ls0wrNjoTw80BYZgeMKb8L0ueeVgowEIliltyQfpOldts0c1Ox64fwD5g6YeGOgj3Yo.OW+bdVSoqw8EOtLn5bxv8s7PdoQStuC3bNXjwOb4EUOO9gVGiXzXx6NDGCemgn6L5m1AaKO2u.lVexpeYchlbAjHZ.lUYtmmmQGjJJv1m6E5A1VlbQTn6vIZJMXB8jlS.cxLcWFGT.Hijk6eLSEXbZKpgHdCvjUCMczQV4SrCHKxLjdy6KVItJCHx6qOPYxYYJZoc66TD5XTd2zKADz4kI5WxjufJlOqLBWjWgXQ7duwTmEhcTlR+Tk7hRlmkKquhrukdoGlFsTTuyOoeRynIqWTfbzudTTTTTQ8l+E.yS0HdsphYwQUFobt6BdqntZZo.u9QS6hkS107JdUmhP1qsBD3EgAVGEkLmqrHuGA77JyKRcLDhzjpqQV5URaZ5W..J6qof8qD8IERa0bmFsc4hg9vBEg90LmQSIJwrNl61kyknDSaTZzThRXHlZFMSy21Z4ssCCBh+LqgYQZJufq7dR0m7D.FMyJhY.S2uaJZ66CUO7H3p0VEd9W9TtpmznKwL1Ty0M2scXP.b6G+LX0o6vuH3mZKOkFDy3ite2Dbq8+CdJ.P32+1XOAFbnaZ+Sdy91Se0aFVmGruT8uvff3xLt4+m.vPFBaP..nMbuBXXP.T8vih+sdGr+XiXLEoQ2.LTP+z69+Hcm2c.sksMDt61.fFMLAUFRMz90kWF+agqsJ.Lou199vhm0CVX2suOM1qs58FyiYXYamf1AHoxJ5bBoKt7kp15JC3swsCiGiMRuC1eHyA.r3Y8hKvut7x3uGfhYKeWy0EVH3m4ZTF.Fktocfs88kR2V11vu+92xcaaBMVy0MAsP8.Sk027hpr6vW7rdfUmtI71+7u7I32SfQYPHxWTZYwy5k32F2zjksMrPvOgEzLxeQf3KKvEOq2vNsNcAqNciWHN52i.CQAwy+xmfq1ZmD+M.26M7lWTM9eWpRkQdVY04MunJaCTJ8wktu5t1FoQqNcgdGreBkXpWbrbYAXb18NXen5gGMrdtKTQ3EUA..odQQYJJ+P5osuOT8txu3Y8f12Udj9ZSjcx5Cp45JUdixASM7D4qzlWA1tX6A.jvAlN8.jeqd3QP3ZqFKSn5eKr61..vH0i3ynq8DkcHslHQ.KUoRr2gec4kwLuXHMV11inPtvtaGavgDC54ulqKrvtaOrSQxyhwiZ0oar.r5gGwZUrQlAoap.PFcKRmhcHn.m5EG4Ej9vxXJP5whnvqJbwq1ZGvpSWXgc2Fp45BVc5BO8UuABCBRzOgNhvxPkqzPjP9Dkqz9A7Yt4NCXZHulxW3bcnxHrdw51pS26G4uS2394199ws8y+xm.qNcSFVKo8vPQw9aw9Uzn.+NYOCcdPh5cxzeQLR1yPFbwy5A29wOmYEDTgypSW3ps1IgfTT4IV4jnHDt1prl+ARuT57ps1gEcK5QDCOhJC.3dCw7NeNKa6XdD8LJyidae+Q57oNEDeFwxf.6zQYA9u32ix2v0VU5cVbV3qa+3micNhfNBcuC1eXH0DYO963+hx+v0VcDdB6iD6eoz.srX8PeFQ8N.TGxrL82XiladQU3WWdYBO.Hwjk8LDMdWziAp7IZjHF1SMW2gdZLHDApmEtzM25uHmb8MjvwndfkAQkf7BQ4g3emmz0ZBegNjEgnb94e4SJm6or9Vt8Sxz6VpREXgc2Nd9tTiPQ82XiFZEP83mUz12OlHPOzHSINBxMJhqGy69UasixNTYzMhh5tOSkwMEWs0NJCmjZbRoIUd1EGIlBw9DN7nJmGo0NHZ66mX9Bp.kWT0+JFlK98zQD.PnOMm2szxfX3nVc5BV11weBCBh0eWH3min+9Xjvr5zcXFOBBFILJJSfJFTAdae+DdNBCBR3MIN80j4KgOKFiNBT4C6nv0DQlmIUzsrIBhzMUARbwvDCS.KCcX8199iLrNRGUO7Hocx37Sv4RPC6.eVrcwDYf+Ns9kEx5se7yi7Jh.oeryVju982+lTYAEn7BUxk4P.CiD+Mjuh2Q2B7k3yRoKQ4LpGb6G+7H7FcMhPcHZYveSreTjeoyMjp2gkCmConysGEEEEIaQBi67jrktEyt..CUTEWrKYOWZKJlX8Qa+pGdzHoSzT5VFMI9cx9ar9PiPQu8X69zW8FnmvhuIieQfYBSjdnxCw1gVuT5QGcKlANYzkp9K74yCeg0GMiTzLoJRWzrUoiVw1VWY3pGqSuetXWNe0V6XTJnmF.UtlTq+yjBHeQSS6e5XleCaFFDLyav.vPubOzLX..hyZToAy8XtXjlRThYI7e.NsNZVKCiuQN.....IUjSD4pPfIH" ],
					"embed" : 1,
					"id" : "obj-5",
					"maxclass" : "fpic",
					"numinlets" : 1,
					"numoutlets" : 0,
					"patching_rect" : [ 477.0, 389.0, 153.0, 52.0 ],
					"pic" : "UIO:/Users/fourms_user/Desktop/Qualisys-demo/graphics/fourMs-BlackRed.gif"
				}

			}
, 			{
				"box" : 				{
					"fontname" : "Arial",
					"fontsize" : 12.0,
					"id" : "obj-36",
					"linecount" : 4,
					"maxclass" : "comment",
					"numinlets" : 1,
					"numoutlets" : 0,
					"patching_rect" : [ 352.0, 197.0, 278.0, 62.0 ],
					"text" : "Usage: \n(1) load sdif file (e.g. Mouse_1.sdif)\n(2) select streams you want to play (e.g. \"All On\")\n(3) press play"
				}

			}
, 			{
				"box" : 				{
					"fontname" : "Arial",
					"fontsize" : 12.0,
					"id" : "obj-35",
					"linecount" : 3,
					"maxclass" : "comment",
					"numinlets" : 1,
					"numoutlets" : 0,
					"patching_rect" : [ 352.0, 136.0, 278.0, 48.0 ],
					"text" : "Simple example of the basics of the gdif.record module. Here applied to a recording of mouse position and mouse button."
				}

			}
, 			{
				"box" : 				{
					"fontname" : "Arial",
					"fontsize" : 12.0,
					"id" : "obj-8",
					"maxclass" : "newobj",
					"numinlets" : 1,
					"numoutlets" : 1,
					"outlettype" : [ "clear" ],
					"patching_rect" : [ 193.0, 168.0, 43.0, 20.0 ],
					"text" : "t clear"
				}

			}
, 			{
				"box" : 				{
					"fontname" : "Arial",
					"fontsize" : 12.0,
					"id" : "obj-7",
					"maxclass" : "newobj",
					"numinlets" : 2,
					"numoutlets" : 2,
					"outlettype" : [ "bang", "" ],
					"patching_rect" : [ 193.0, 143.0, 36.0, 20.0 ],
					"text" : "sel 1"
				}

			}
, 			{
				"box" : 				{
					"fontname" : "Arial",
					"fontsize" : 11.595187,
					"id" : "obj-11",
					"maxclass" : "newobj",
					"numinlets" : 2,
					"numoutlets" : 1,
					"outlettype" : [ "" ],
					"patcher" : 					{
						"fileversion" : 1,
						"rect" : [ 936.0, 115.0, 691.0, 438.0 ],
						"bglocked" : 0,
						"defrect" : [ 936.0, 115.0, 691.0, 438.0 ],
						"openrect" : [ 0.0, 0.0, 0.0, 0.0 ],
						"openinpresentation" : 0,
						"default_fontsize" : 10.0,
						"default_fontface" : 0,
						"default_fontname" : "Arial",
						"gridonopen" : 0,
						"gridsize" : [ 15.0, 15.0 ],
						"gridsnaponopen" : 0,
						"toolbarvisible" : 1,
						"boxanimatetime" : 200,
						"imprint" : 0,
						"enablehscroll" : 1,
						"enablevscroll" : 1,
						"devicewidth" : 0.0,
						"boxes" : [ 							{
								"box" : 								{
									"fontname" : "Arial",
									"fontsize" : 11.595187,
									"id" : "obj-32",
									"maxclass" : "newobj",
									"numinlets" : 2,
									"numoutlets" : 1,
									"outlettype" : [ "" ],
									"patching_rect" : [ 231.0, 308.0, 33.0, 20.0 ],
									"text" : "gate"
								}

							}
, 							{
								"box" : 								{
									"fontname" : "Arial",
									"fontsize" : 11.595187,
									"id" : "obj-27",
									"maxclass" : "newobj",
									"numinlets" : 2,
									"numoutlets" : 1,
									"outlettype" : [ "float" ],
									"patching_rect" : [ 55.0, 160.0, 34.0, 20.0 ],
									"text" : "* 0.2"
								}

							}
, 							{
								"box" : 								{
									"fontname" : "Arial",
									"fontsize" : 11.595187,
									"id" : "obj-26",
									"maxclass" : "newobj",
									"numinlets" : 2,
									"numoutlets" : 1,
									"outlettype" : [ "float" ],
									"patching_rect" : [ 21.0, 181.0, 34.0, 20.0 ],
									"text" : "* 0.2"
								}

							}
, 							{
								"box" : 								{
									"fontname" : "Arial",
									"fontsize" : 11.595187,
									"id" : "obj-45",
									"maxclass" : "message",
									"numinlets" : 2,
									"numoutlets" : 1,
									"outlettype" : [ "" ],
									"patching_rect" : [ 425.0, 129.0, 91.0, 18.0 ],
									"text" : "hidesprite circle"
								}

							}
, 							{
								"box" : 								{
									"fontname" : "Arial",
									"fontsize" : 11.595187,
									"id" : "obj-44",
									"maxclass" : "newobj",
									"numinlets" : 1,
									"numoutlets" : 1,
									"outlettype" : [ "bang" ],
									"patching_rect" : [ 356.0, 295.0, 58.0, 20.0 ],
									"text" : "loadbang"
								}

							}
, 							{
								"box" : 								{
									"fontname" : "Arial",
									"fontsize" : 11.595187,
									"id" : "obj-42",
									"linecount" : 2,
									"maxclass" : "message",
									"numinlets" : 2,
									"numoutlets" : 1,
									"outlettype" : [ "" ],
									"patching_rect" : [ 356.0, 322.0, 302.0, 31.0 ],
									"text" : "recordsprite, pensize 4 4, frameoval -12 -12 12 12 0 0 0, closesprite circle"
								}

							}
, 							{
								"box" : 								{
									"fontname" : "Arial",
									"fontsize" : 11.595187,
									"id" : "obj-41",
									"maxclass" : "newobj",
									"numinlets" : 2,
									"numoutlets" : 2,
									"outlettype" : [ "bang", "" ],
									"patching_rect" : [ 425.0, 88.0, 35.0, 20.0 ],
									"text" : "sel 1"
								}

							}
, 							{
								"box" : 								{
									"fontname" : "Arial",
									"fontsize" : 11.595187,
									"id" : "obj-2",
									"maxclass" : "newobj",
									"numinlets" : 3,
									"numoutlets" : 1,
									"outlettype" : [ "" ],
									"patching_rect" : [ 141.0, 220.0, 147.0, 20.0 ],
									"text" : "pack i i i"
								}

							}
, 							{
								"box" : 								{
									"fontname" : "Arial",
									"fontsize" : 11.595187,
									"id" : "obj-3",
									"maxclass" : "newobj",
									"numinlets" : 2,
									"numoutlets" : 1,
									"outlettype" : [ "bang" ],
									"patching_rect" : [ 269.0, 125.826088, 67.0, 20.0 ],
									"text" : "metro 1300"
								}

							}
, 							{
								"box" : 								{
									"fontname" : "Arial",
									"fontsize" : 11.595187,
									"id" : "obj-4",
									"maxclass" : "message",
									"numinlets" : 2,
									"numoutlets" : 1,
									"outlettype" : [ "" ],
									"patching_rect" : [ 269.0, 172.08696, 50.0, 18.0 ],
									"text" : "$1 1300"
								}

							}
, 							{
								"box" : 								{
									"fontname" : "Arial",
									"fontsize" : 11.595187,
									"id" : "obj-5",
									"maxclass" : "newobj",
									"numinlets" : 2,
									"numoutlets" : 1,
									"outlettype" : [ "int" ],
									"patching_rect" : [ 269.0, 148.956528, 70.0, 20.0 ],
									"text" : "random 256"
								}

							}
, 							{
								"box" : 								{
									"fontname" : "Arial",
									"fontsize" : 11.595187,
									"id" : "obj-6",
									"maxclass" : "newobj",
									"numinlets" : 3,
									"numoutlets" : 2,
									"outlettype" : [ "", "" ],
									"patching_rect" : [ 269.0, 193.0, 49.0, 20.0 ],
									"text" : "line 100"
								}

							}
, 							{
								"box" : 								{
									"fontname" : "Arial",
									"fontsize" : 11.595187,
									"id" : "obj-7",
									"maxclass" : "newobj",
									"numinlets" : 3,
									"numoutlets" : 2,
									"outlettype" : [ "", "" ],
									"patching_rect" : [ 205.0, 193.0, 49.0, 20.0 ],
									"text" : "line 100"
								}

							}
, 							{
								"box" : 								{
									"fontname" : "Arial",
									"fontsize" : 11.595187,
									"id" : "obj-8",
									"maxclass" : "newobj",
									"numinlets" : 2,
									"numoutlets" : 1,
									"outlettype" : [ "int" ],
									"patching_rect" : [ 205.0, 148.956528, 70.0, 20.0 ],
									"text" : "random 256"
								}

							}
, 							{
								"box" : 								{
									"fontname" : "Arial",
									"fontsize" : 11.595187,
									"id" : "obj-9",
									"maxclass" : "message",
									"numinlets" : 2,
									"numoutlets" : 1,
									"outlettype" : [ "" ],
									"patching_rect" : [ 205.0, 172.08696, 44.0, 18.0 ],
									"text" : "$1 900"
								}

							}
, 							{
								"box" : 								{
									"fontname" : "Arial",
									"fontsize" : 11.595187,
									"id" : "obj-10",
									"maxclass" : "newobj",
									"numinlets" : 2,
									"numoutlets" : 1,
									"outlettype" : [ "bang" ],
									"patching_rect" : [ 205.0, 125.826088, 61.0, 20.0 ],
									"text" : "metro 900"
								}

							}
, 							{
								"box" : 								{
									"id" : "obj-11",
									"maxclass" : "toggle",
									"numinlets" : 1,
									"numoutlets" : 1,
									"outlettype" : [ "int" ],
									"patching_rect" : [ 141.0, 82.0, 19.0, 19.0 ]
								}

							}
, 							{
								"box" : 								{
									"fontname" : "Arial",
									"fontsize" : 11.595187,
									"id" : "obj-12",
									"maxclass" : "newobj",
									"numinlets" : 2,
									"numoutlets" : 1,
									"outlettype" : [ "bang" ],
									"patching_rect" : [ 141.0, 125.826088, 67.0, 20.0 ],
									"text" : "metro 1000"
								}

							}
, 							{
								"box" : 								{
									"fontname" : "Arial",
									"fontsize" : 11.595187,
									"id" : "obj-13",
									"maxclass" : "message",
									"numinlets" : 2,
									"numoutlets" : 1,
									"outlettype" : [ "" ],
									"patching_rect" : [ 141.0, 172.08696, 50.0, 18.0 ],
									"text" : "$1 1000"
								}

							}
, 							{
								"box" : 								{
									"fontname" : "Arial",
									"fontsize" : 11.595187,
									"id" : "obj-14",
									"maxclass" : "newobj",
									"numinlets" : 2,
									"numoutlets" : 1,
									"outlettype" : [ "int" ],
									"patching_rect" : [ 141.0, 148.956528, 70.0, 20.0 ],
									"text" : "random 256"
								}

							}
, 							{
								"box" : 								{
									"fontname" : "Arial",
									"fontsize" : 11.595187,
									"id" : "obj-15",
									"maxclass" : "newobj",
									"numinlets" : 3,
									"numoutlets" : 2,
									"outlettype" : [ "", "" ],
									"patching_rect" : [ 141.0, 193.0, 49.0, 20.0 ],
									"text" : "line 100"
								}

							}
, 							{
								"box" : 								{
									"comment" : "",
									"id" : "obj-17",
									"maxclass" : "inlet",
									"numinlets" : 0,
									"numoutlets" : 1,
									"outlettype" : [ "" ],
									"patching_rect" : [ 425.0, 30.0, 25.0, 25.0 ]
								}

							}
, 							{
								"box" : 								{
									"fontname" : "Arial",
									"fontsize" : 11.595187,
									"id" : "obj-18",
									"maxclass" : "newobj",
									"numinlets" : 1,
									"numoutlets" : 2,
									"outlettype" : [ "int", "int" ],
									"patching_rect" : [ 25.0, 129.0, 48.0, 20.0 ],
									"text" : "unpack"
								}

							}
, 							{
								"box" : 								{
									"fontname" : "Arial",
									"fontsize" : 11.595187,
									"id" : "obj-19",
									"maxclass" : "newobj",
									"numinlets" : 2,
									"numoutlets" : 1,
									"outlettype" : [ "int" ],
									"patching_rect" : [ 115.0, 220.0, 32.5, 20.0 ],
									"text" : "+ 2"
								}

							}
, 							{
								"box" : 								{
									"fontname" : "Arial",
									"fontsize" : 11.595187,
									"id" : "obj-20",
									"maxclass" : "newobj",
									"numinlets" : 2,
									"numoutlets" : 1,
									"outlettype" : [ "int" ],
									"patching_rect" : [ 83.0, 220.0, 32.5, 20.0 ],
									"text" : "+ 2"
								}

							}
, 							{
								"box" : 								{
									"fontname" : "Arial",
									"fontsize" : 11.595187,
									"id" : "obj-21",
									"maxclass" : "newobj",
									"numinlets" : 2,
									"numoutlets" : 1,
									"outlettype" : [ "int" ],
									"patching_rect" : [ 54.0, 220.0, 32.5, 20.0 ],
									"text" : "- 2"
								}

							}
, 							{
								"box" : 								{
									"fontname" : "Arial",
									"fontsize" : 11.595187,
									"id" : "obj-22",
									"maxclass" : "newobj",
									"numinlets" : 2,
									"numoutlets" : 1,
									"outlettype" : [ "int" ],
									"patching_rect" : [ 25.0, 220.0, 32.5, 20.0 ],
									"text" : "- 2"
								}

							}
, 							{
								"box" : 								{
									"fontname" : "Arial",
									"fontsize" : 11.595187,
									"id" : "obj-23",
									"maxclass" : "newobj",
									"numinlets" : 1,
									"numoutlets" : 1,
									"outlettype" : [ "" ],
									"patching_rect" : [ 25.0, 271.0, 101.0, 20.0 ],
									"text" : "prepend paintoval"
								}

							}
, 							{
								"box" : 								{
									"fontname" : "Arial",
									"fontsize" : 11.595187,
									"id" : "obj-24",
									"maxclass" : "newobj",
									"numinlets" : 7,
									"numoutlets" : 1,
									"outlettype" : [ "" ],
									"patching_rect" : [ 25.0, 248.0, 193.0, 20.0 ],
									"text" : "pack i i i i 0 0 0"
								}

							}
, 							{
								"box" : 								{
									"comment" : "",
									"id" : "obj-35",
									"maxclass" : "outlet",
									"numinlets" : 1,
									"numoutlets" : 0,
									"patching_rect" : [ 215.0, 387.0, 25.0, 25.0 ]
								}

							}
, 							{
								"box" : 								{
									"comment" : "",
									"id" : "obj-37",
									"maxclass" : "inlet",
									"numinlets" : 0,
									"numoutlets" : 1,
									"outlettype" : [ "" ],
									"patching_rect" : [ 25.0, 30.0, 25.0, 25.0 ]
								}

							}
, 							{
								"box" : 								{
									"fontname" : "Arial",
									"fontsize" : 11.595187,
									"id" : "obj-38",
									"maxclass" : "comment",
									"numinlets" : 1,
									"numoutlets" : 0,
									"patching_rect" : [ 49.0, 30.0, 128.0, 20.0 ],
									"text" : "mouse location on click"
								}

							}
, 							{
								"box" : 								{
									"fontname" : "Arial",
									"fontsize" : 11.595187,
									"id" : "obj-39",
									"maxclass" : "comment",
									"numinlets" : 1,
									"numoutlets" : 0,
									"patching_rect" : [ 457.0, 30.0, 105.0, 20.0 ],
									"text" : "(left) mouse button"
								}

							}
 ],
						"lines" : [ 							{
								"patchline" : 								{
									"destination" : [ "obj-8", 0 ],
									"hidden" : 0,
									"midpoints" : [  ],
									"source" : [ "obj-10", 0 ]
								}

							}
, 							{
								"patchline" : 								{
									"destination" : [ "obj-10", 0 ],
									"hidden" : 0,
									"midpoints" : [  ],
									"source" : [ "obj-11", 0 ]
								}

							}
, 							{
								"patchline" : 								{
									"destination" : [ "obj-12", 0 ],
									"hidden" : 0,
									"midpoints" : [  ],
									"source" : [ "obj-11", 0 ]
								}

							}
, 							{
								"patchline" : 								{
									"destination" : [ "obj-3", 0 ],
									"hidden" : 0,
									"midpoints" : [  ],
									"source" : [ "obj-11", 0 ]
								}

							}
, 							{
								"patchline" : 								{
									"destination" : [ "obj-14", 0 ],
									"hidden" : 0,
									"midpoints" : [  ],
									"source" : [ "obj-12", 0 ]
								}

							}
, 							{
								"patchline" : 								{
									"destination" : [ "obj-15", 0 ],
									"hidden" : 0,
									"midpoints" : [  ],
									"source" : [ "obj-13", 0 ]
								}

							}
, 							{
								"patchline" : 								{
									"destination" : [ "obj-13", 0 ],
									"hidden" : 0,
									"midpoints" : [  ],
									"source" : [ "obj-14", 0 ]
								}

							}
, 							{
								"patchline" : 								{
									"destination" : [ "obj-2", 0 ],
									"hidden" : 0,
									"midpoints" : [  ],
									"source" : [ "obj-15", 0 ]
								}

							}
, 							{
								"patchline" : 								{
									"destination" : [ "obj-11", 0 ],
									"hidden" : 0,
									"midpoints" : [  ],
									"source" : [ "obj-17", 0 ]
								}

							}
, 							{
								"patchline" : 								{
									"destination" : [ "obj-32", 0 ],
									"hidden" : 0,
									"midpoints" : [  ],
									"source" : [ "obj-17", 0 ]
								}

							}
, 							{
								"patchline" : 								{
									"destination" : [ "obj-41", 0 ],
									"hidden" : 0,
									"midpoints" : [  ],
									"source" : [ "obj-17", 0 ]
								}

							}
, 							{
								"patchline" : 								{
									"destination" : [ "obj-26", 0 ],
									"hidden" : 0,
									"midpoints" : [  ],
									"source" : [ "obj-18", 0 ]
								}

							}
, 							{
								"patchline" : 								{
									"destination" : [ "obj-27", 0 ],
									"hidden" : 0,
									"midpoints" : [  ],
									"source" : [ "obj-18", 1 ]
								}

							}
, 							{
								"patchline" : 								{
									"destination" : [ "obj-24", 3 ],
									"hidden" : 0,
									"midpoints" : [  ],
									"source" : [ "obj-19", 0 ]
								}

							}
, 							{
								"patchline" : 								{
									"destination" : [ "obj-24", 4 ],
									"hidden" : 0,
									"midpoints" : [  ],
									"source" : [ "obj-2", 0 ]
								}

							}
, 							{
								"patchline" : 								{
									"destination" : [ "obj-24", 2 ],
									"hidden" : 0,
									"midpoints" : [  ],
									"source" : [ "obj-20", 0 ]
								}

							}
, 							{
								"patchline" : 								{
									"destination" : [ "obj-24", 1 ],
									"hidden" : 0,
									"midpoints" : [  ],
									"source" : [ "obj-21", 0 ]
								}

							}
, 							{
								"patchline" : 								{
									"destination" : [ "obj-24", 0 ],
									"hidden" : 0,
									"midpoints" : [  ],
									"source" : [ "obj-22", 0 ]
								}

							}
, 							{
								"patchline" : 								{
									"destination" : [ "obj-32", 1 ],
									"hidden" : 0,
									"midpoints" : [  ],
									"source" : [ "obj-23", 0 ]
								}

							}
, 							{
								"patchline" : 								{
									"destination" : [ "obj-23", 0 ],
									"hidden" : 0,
									"midpoints" : [  ],
									"source" : [ "obj-24", 0 ]
								}

							}
, 							{
								"patchline" : 								{
									"destination" : [ "obj-20", 0 ],
									"hidden" : 0,
									"midpoints" : [  ],
									"source" : [ "obj-26", 0 ]
								}

							}
, 							{
								"patchline" : 								{
									"destination" : [ "obj-22", 0 ],
									"hidden" : 0,
									"midpoints" : [  ],
									"source" : [ "obj-26", 0 ]
								}

							}
, 							{
								"patchline" : 								{
									"destination" : [ "obj-19", 0 ],
									"hidden" : 0,
									"midpoints" : [  ],
									"source" : [ "obj-27", 0 ]
								}

							}
, 							{
								"patchline" : 								{
									"destination" : [ "obj-21", 0 ],
									"hidden" : 0,
									"midpoints" : [  ],
									"source" : [ "obj-27", 0 ]
								}

							}
, 							{
								"patchline" : 								{
									"destination" : [ "obj-5", 0 ],
									"hidden" : 0,
									"midpoints" : [  ],
									"source" : [ "obj-3", 0 ]
								}

							}
, 							{
								"patchline" : 								{
									"destination" : [ "obj-35", 0 ],
									"hidden" : 0,
									"midpoints" : [  ],
									"source" : [ "obj-32", 0 ]
								}

							}
, 							{
								"patchline" : 								{
									"destination" : [ "obj-18", 0 ],
									"hidden" : 0,
									"midpoints" : [  ],
									"source" : [ "obj-37", 0 ]
								}

							}
, 							{
								"patchline" : 								{
									"destination" : [ "obj-6", 0 ],
									"hidden" : 0,
									"midpoints" : [  ],
									"source" : [ "obj-4", 0 ]
								}

							}
, 							{
								"patchline" : 								{
									"destination" : [ "obj-45", 0 ],
									"hidden" : 0,
									"midpoints" : [  ],
									"source" : [ "obj-41", 0 ]
								}

							}
, 							{
								"patchline" : 								{
									"destination" : [ "obj-35", 0 ],
									"hidden" : 0,
									"midpoints" : [  ],
									"source" : [ "obj-42", 0 ]
								}

							}
, 							{
								"patchline" : 								{
									"destination" : [ "obj-42", 0 ],
									"hidden" : 0,
									"midpoints" : [  ],
									"source" : [ "obj-44", 0 ]
								}

							}
, 							{
								"patchline" : 								{
									"destination" : [ "obj-35", 0 ],
									"hidden" : 0,
									"midpoints" : [  ],
									"source" : [ "obj-45", 0 ]
								}

							}
, 							{
								"patchline" : 								{
									"destination" : [ "obj-4", 0 ],
									"hidden" : 0,
									"midpoints" : [  ],
									"source" : [ "obj-5", 0 ]
								}

							}
, 							{
								"patchline" : 								{
									"destination" : [ "obj-2", 2 ],
									"hidden" : 0,
									"midpoints" : [  ],
									"source" : [ "obj-6", 0 ]
								}

							}
, 							{
								"patchline" : 								{
									"destination" : [ "obj-2", 1 ],
									"hidden" : 0,
									"midpoints" : [  ],
									"source" : [ "obj-7", 0 ]
								}

							}
, 							{
								"patchline" : 								{
									"destination" : [ "obj-9", 0 ],
									"hidden" : 0,
									"midpoints" : [  ],
									"source" : [ "obj-8", 0 ]
								}

							}
, 							{
								"patchline" : 								{
									"destination" : [ "obj-7", 0 ],
									"hidden" : 0,
									"midpoints" : [  ],
									"source" : [ "obj-9", 0 ]
								}

							}
 ]
					}
,
					"patching_rect" : [ 28.0, 168.0, 101.0, 20.0 ],
					"saved_object_attributes" : 					{
						"default_fontname" : "Arial",
						"fontname" : "Arial",
						"default_fontsize" : 10.0,
						"fontface" : 0,
						"fontsize" : 10.0,
						"default_fontface" : 0,
						"globalpatchername" : ""
					}
,
					"text" : "p lcd_ctl"
				}

			}
, 			{
				"box" : 				{
					"id" : "obj-4",
					"maxclass" : "lcd",
					"numinlets" : 1,
					"numoutlets" : 4,
					"outlettype" : [ "list", "list", "int", "" ],
					"patching_rect" : [ 28.0, 198.0, 296.0, 247.0 ]
				}

			}
, 			{
				"box" : 				{
					"fontname" : "Arial",
					"fontsize" : 12.0,
					"id" : "obj-2",
					"maxclass" : "newobj",
					"numinlets" : 1,
					"numoutlets" : 3,
					"outlettype" : [ "", "", "OSCTimeTag" ],
					"patching_rect" : [ 309.0, 91.0, 113.0, 20.0 ],
					"text" : "OpenSoundControl"
				}

			}
, 			{
				"box" : 				{
					"fontname" : "Arial",
					"fontsize" : 12.0,
					"id" : "obj-1",
					"maxclass" : "newobj",
					"numinlets" : 1,
					"numoutlets" : 4,
					"outlettype" : [ "", "", "", "" ],
					"patching_rect" : [ 28.0, 118.0, 266.0, 20.0 ],
					"text" : "jcom.oscroute /XPO2/1 /XTO1/1 /play"
				}

			}
, 			{
				"box" : 				{
					"args" : [  ],
					"id" : "obj-3",
					"lockeddragscroll" : 1,
					"maxclass" : "bpatcher",
					"name" : "jmod.gdif.play.maxpat",
					"numinlets" : 1,
					"numoutlets" : 2,
					"outlettype" : [ "", "" ],
					"patching_rect" : [ 28.0, 17.0, 300.0, 70.0 ],
					"presentation_rect" : [ 896.0, 163.0, 300.0, 70.0 ]
				}

			}
 ],
		"lines" : [ 			{
				"patchline" : 				{
					"destination" : [ "obj-11", 1 ],
					"hidden" : 0,
					"midpoints" : [  ],
					"source" : [ "obj-1", 1 ]
				}

			}
, 			{
				"patchline" : 				{
					"destination" : [ "obj-11", 0 ],
					"hidden" : 0,
					"midpoints" : [  ],
					"source" : [ "obj-1", 0 ]
				}

			}
, 			{
				"patchline" : 				{
					"destination" : [ "obj-7", 0 ],
					"hidden" : 0,
					"midpoints" : [  ],
					"source" : [ "obj-1", 2 ]
				}

			}
, 			{
				"patchline" : 				{
					"destination" : [ "obj-4", 0 ],
					"hidden" : 0,
					"midpoints" : [  ],
					"source" : [ "obj-11", 0 ]
				}

			}
, 			{
				"patchline" : 				{
					"destination" : [ "obj-1", 0 ],
					"hidden" : 0,
					"midpoints" : [ 365.5, 115.0, 37.5, 115.0 ],
					"source" : [ "obj-2", 1 ]
				}

			}
, 			{
				"patchline" : 				{
					"destination" : [ "obj-1", 0 ],
					"hidden" : 0,
					"midpoints" : [  ],
					"source" : [ "obj-3", 0 ]
				}

			}
, 			{
				"patchline" : 				{
					"destination" : [ "obj-2", 0 ],
					"hidden" : 0,
					"midpoints" : [  ],
					"source" : [ "obj-3", 1 ]
				}

			}
, 			{
				"patchline" : 				{
					"destination" : [ "obj-8", 0 ],
					"hidden" : 0,
					"midpoints" : [  ],
					"source" : [ "obj-7", 0 ]
				}

			}
, 			{
				"patchline" : 				{
					"destination" : [ "obj-4", 0 ],
					"hidden" : 0,
					"midpoints" : [ 202.5, 192.0, 37.5, 192.0 ],
					"source" : [ "obj-8", 0 ]
				}

			}
 ]
	}

}
